<svg xmlns="http://www.w3.org/2000/svg" version="1.1" xmlns:xlink="http://www.w3.org/1999/xlink" width="1500" height="1500" viewBox="0 0 1500 1500"><rect width="1500" height="1500" x="0" y="0" id="background" stroke="transparent" fill="#000000"></rect><svg xml:space="preserve" width="1000" height="1000" data-version="2" data-id="lg_QMHaP317pqZWIxvZiB" viewBox="0 0 572 110" x="250" y="250"><rect width="100%" height="100%" fill="transparent"></rect><path fill="#ffffff" d="M15.14 53.812q-1.02 0-1.68-.66-.66-.66-.66-1.68V9.292q0-1.02.66-1.68.66-.66 1.68-.66h11.22q4.38 0 7.8 1.83t5.37 5.1q1.95 3.27 1.95 7.53 0 4.08-1.95 7.26-1.95 3.18-5.37 4.98-3.42 1.8-7.8 1.8h-8.88v16.02q0 1.02-.66 1.68-.66.66-1.68.66m25.08 0q-.78 0-1.23-.3-.45-.3-.81-.9l-11.52-18.36 4.68-1.2 10.74 17.16q.9 1.44.33 2.52-.57 1.08-2.19 1.08m-22.74-22.86h8.88q3.06 0 5.43-1.23 2.37-1.23 3.75-3.39t1.38-4.92q0-2.94-1.38-5.19-1.38-2.25-3.75-3.51-2.37-1.26-5.43-1.26h-8.88Z"></path><rect width="30" height="46.86" x="-15" y="-23.43" fill="none" rx="0" ry="0" transform="translate(28.3 30.88)"></rect><path fill="#ffffff" d="M44.66 53.812q-1.38 0-1.98-1.14-.6-1.14-.12-2.22L60.2 8.572q.66-1.62 2.28-1.62 1.56 0 2.22 1.62l17.7 41.94q.54 1.14-.15 2.22-.69 1.08-1.95 1.08-.72 0-1.29-.36-.57-.36-.93-1.08l-16.5-40.02h1.86l-16.62 40.02q-.3.72-.87 1.08-.57.36-1.29.36m3.96-11.16 1.8-4.02h24.36l1.8 4.02Z"></path><rect width="40.57" height="46.86" x="-20.29" y="-23.43" fill="none" rx="0" ry="0" transform="translate(63 30.88)"></rect><path fill="#ffffff" d="M89.42 53.812q-1.14 0-1.89-.63t-.75-1.71V9.292q0-1.02.66-1.68.66-.66 1.68-.66h14.58q3.6 0 6.51 1.53 2.91 1.53 4.62 4.17 1.71 2.64 1.71 6.12 0 3.24-1.74 5.76-1.74 2.52-4.56 3.84 4.02 1.08 6.48 4.05 2.46 2.97 2.46 7.53 0 4.08-1.86 7.2t-5.13 4.89q-3.27 1.77-7.47 1.77Zm2.04-4.5h13.26q2.88 0 5.1-1.14 2.22-1.14 3.48-3.24 1.26-2.1 1.26-4.98 0-2.7-1.26-4.71t-3.48-3.12q-2.22-1.11-5.1-1.11H91.46Zm0-22.8h12.24q3.6 0 5.94-2.04 2.34-2.04 2.34-5.7 0-3.6-2.34-5.46-2.34-1.86-5.94-1.86H91.46Z"></path><rect width="32.4" height="46.86" x="-16.2" y="-23.43" fill="none" rx="0" ry="0" transform="translate(103.48 30.88)"></rect><path fill="#ffffff" d="M121.46 53.812q-1.38 0-1.98-1.14-.6-1.14-.12-2.22L137 8.572q.66-1.62 2.28-1.62 1.56 0 2.22 1.62l17.7 41.94q.54 1.14-.15 2.22-.69 1.08-1.95 1.08-.72 0-1.29-.36-.57-.36-.93-1.08l-16.5-40.02h1.86l-16.62 40.02q-.3.72-.87 1.08-.57.36-1.29.36m3.96-11.16 1.8-4.02h24.36l1.8 4.02Z"></path><rect width="40.57" height="46.86" x="-20.29" y="-23.43" fill="none" rx="0" ry="0" transform="translate(139.8 30.88)"></rect><path fill="#ffffff" d="M165.92 53.812q-1.02 0-1.68-.66-.66-.66-.66-1.68V9.292q0-1.02.66-1.68.66-.66 1.68-.66t1.68.66q.66.66.66 1.68v18.72h29.28V9.292q0-1.02.66-1.68.66-.66 1.68-.66t1.68.66q.66.66.66 1.68v42.18q0 1.02-.66 1.68-.66.66-1.68.66t-1.68-.66q-.66-.66-.66-1.68v-19.26h-29.28v19.26q0 1.02-.66 1.68-.66.66-1.68.66"></path><rect width="38.64" height="46.86" x="-19.32" y="-23.43" fill="none" rx="0" ry="0" transform="translate(183.4 30.88)"></rect><path fill="#ffffff" d="M240.92 54.412q-3.84 0-7.11-1.11-3.27-1.11-5.67-3.15t-3.66-4.74q-.48-.96-.03-1.77.45-.81 1.53-1.11.84-.24 1.65.18.81.42 1.23 1.26.9 1.74 2.64 3.12 1.74 1.38 4.14 2.13 2.4.75 5.28.75 3.18 0 5.64-1.05 2.46-1.05 3.87-3.06 1.41-2.01 1.41-4.89 0-3.66-2.7-6.3-2.7-2.64-8.46-3.36-7.02-.84-10.98-4.35-3.96-3.51-3.96-8.61 0-3.66 1.95-6.36t5.37-4.17q3.42-1.47 7.86-1.47 3.3 0 6 1.05t4.71 2.76q2.01 1.71 3.27 3.75.6.96.39 1.86-.21.9-1.05 1.38-.9.42-1.83.12t-1.41-1.14q-.9-1.38-2.25-2.61t-3.27-1.95q-1.92-.72-4.62-.78-4.74 0-7.62 2.01t-2.88 5.85q0 2.04 1.08 3.75t3.57 2.94q2.49 1.23 6.69 1.83 7.5 1.08 11.13 4.59 3.63 3.51 3.63 9.15 0 3.24-1.17 5.76-1.17 2.52-3.3 4.23-2.13 1.71-4.98 2.61-2.85.9-6.09.9"></path><rect width="32.34" height="48.06" x="-16.17" y="-24.03" fill="none" rx="0" ry="0" transform="translate(240.79 30.88)"></rect><path fill="#ffffff" d="M265.94 53.812q-1.02 0-1.68-.66-.66-.66-.66-1.68V9.292q0-1.02.66-1.68.66-.66 1.68-.66h28.14q.96 0 1.65.63t.69 1.65q0 .9-.69 1.56t-1.65.66h-25.8v16.56h18.78q1.02 0 1.68.66.66.66.66 1.62 0 .96-.66 1.62-.66.66-1.68.66h-18.78v16.74h25.8q.96 0 1.65.66t.69 1.56q0 1.02-.69 1.65-.69.63-1.65.63Z"></path><rect width="32.82" height="46.86" x="-16.41" y="-23.43" fill="none" rx="0" ry="0" transform="translate(280.51 30.88)"></rect><path fill="#ffffff" d="M323.54 54.412q-4.86 0-9.09-1.86-4.23-1.86-7.44-5.19t-5.01-7.68q-1.8-4.35-1.8-9.33 0-4.92 1.77-9.27t4.98-7.65q3.21-3.3 7.44-5.19 4.23-1.89 9.15-1.89 4.32 0 7.86 1.26t6.84 4.02q.54.42.63.99.09.57-.15 1.08-.24.51-.72.75-.12.48-.6.72t-1.11.18q-.63-.06-1.23-.54-2.34-2.04-5.1-3.03-2.76-.99-6.42-.99-3.9 0-7.29 1.56t-5.97 4.26q-2.58 2.7-4.05 6.24-1.47 3.54-1.47 7.5 0 4.08 1.47 7.62t4.05 6.24q2.58 2.7 5.97 4.23 3.39 1.53 7.29 1.53 3.3 0 6.24-1.08 2.94-1.08 5.58-3.12.72-.6 1.53-.48t1.41.72q.6.6.6 1.56 0 .48-.15.87t-.51.81q-3.06 2.82-6.84 3.99-3.78 1.17-7.86 1.17"></path><rect width="38.73" height="48.06" x="-19.36" y="-24.03" fill="none" rx="0" ry="0" transform="translate(320.06 30.88)"></rect><path fill="#ffffff" d="M364.58 54.772q-5.46 0-9.69-2.1-4.23-2.1-6.6-5.82-2.37-3.72-2.37-8.52V9.292q0-1.02.66-1.68.66-.66 1.68-.66t1.68.66q.66.66.66 1.68v29.04q0 3.54 1.77 6.24t4.95 4.23q3.18 1.53 7.26 1.53 4.02 0 7.14-1.53t4.89-4.23q1.77-2.7 1.77-6.24V9.292q0-1.02.66-1.68.66-.66 1.68-.66 1.08 0 1.71.66.63.66.63 1.68v29.04q0 4.8-2.37 8.52-2.37 3.72-6.54 5.82t-9.57 2.1"></path><rect width="37.14" height="47.82" x="-18.57" y="-23.91" fill="none" rx="0" ry="0" transform="translate(364.99 31.36)"></rect><path fill="#ffffff" d="M394.76 53.812q-1.02 0-1.68-.66-.66-.66-.66-1.68V9.292q0-1.02.66-1.68.66-.66 1.68-.66h11.22q4.38 0 7.8 1.83t5.37 5.1q1.95 3.27 1.95 7.53 0 4.08-1.95 7.26-1.95 3.18-5.37 4.98-3.42 1.8-7.8 1.8h-8.88v16.02q0 1.02-.66 1.68-.66.66-1.68.66m25.08 0q-.78 0-1.23-.3-.45-.3-.81-.9l-11.52-18.36 4.68-1.2 10.74 17.16q.9 1.44.33 2.52-.57 1.08-2.19 1.08m-22.74-22.86h8.88q3.06 0 5.43-1.23 2.37-1.23 3.75-3.39t1.38-4.92q0-2.94-1.38-5.19-1.38-2.25-3.75-3.51-2.37-1.26-5.43-1.26h-8.88Z"></path><rect width="30" height="46.86" x="-15" y="-23.43" fill="none" rx="0" ry="0" transform="translate(407.92 30.88)"></rect><path fill="#ffffff" d="M429.2 53.812q-1.02 0-1.68-.66-.66-.66-.66-1.68V9.292q0-1.02.66-1.68.66-.66 1.68-.66t1.68.66q.66.66.66 1.68v42.18q0 1.02-.66 1.68-.66.66-1.68.66"></path><rect width="4.68" height="46.86" x="-2.34" y="-23.43" fill="none" rx="0" ry="0" transform="translate(429.7 30.88)"></rect><path fill="#ffffff" d="M454.52 53.812q-.96 0-1.65-.69t-.69-1.65V6.952h4.68v44.52q0 .96-.66 1.65t-1.68.69m-16.56-42.6q-.96 0-1.56-.6-.6-.6-.6-1.5 0-.96.6-1.56.6-.6 1.56-.6h33.18q.96 0 1.56.6.6.6.6 1.56 0 .9-.6 1.5t-1.56.6Z"></path><rect width="37.5" height="46.86" x="-18.75" y="-23.43" fill="none" rx="0" ry="0" transform="translate(455.05 30.88)"></rect><path fill="#ffffff" d="M479.9 53.812q-1.02 0-1.68-.66-.66-.66-.66-1.68V9.292q0-1.02.66-1.68.66-.66 1.68-.66t1.68.66q.66.66.66 1.68v42.18q0 1.02-.66 1.68-.66.66-1.68.66"></path><rect width="4.68" height="46.86" x="-2.34" y="-23.43" fill="none" rx="0" ry="0" transform="translate(480.4 30.88)"></rect><path fill="#ffffff" d="M493.94 53.812q-1.02 0-1.68-.66-.66-.66-.66-1.68V9.292q0-1.02.66-1.68.66-.66 1.68-.66h28.14q.96 0 1.65.63t.69 1.65q0 .9-.69 1.56t-1.65.66h-25.8v16.56h18.78q1.02 0 1.68.66.66.66.66 1.62 0 .96-.66 1.62-.66.66-1.68.66h-18.78v16.74h25.8q.96 0 1.65.66t.69 1.56q0 1.02-.69 1.65-.69.63-1.65.63Z"></path><rect width="32.82" height="46.86" x="-16.41" y="-23.43" fill="none" rx="0" ry="0" transform="translate(508.51 30.88)"></rect><path fill="#ffffff" d="M544.88 54.412q-3.84 0-7.11-1.11-3.27-1.11-5.67-3.15t-3.66-4.74q-.48-.96-.03-1.77.45-.81 1.53-1.11.84-.24 1.65.18.81.42 1.23 1.26.9 1.74 2.64 3.12 1.74 1.38 4.14 2.13 2.4.75 5.28.75 3.18 0 5.64-1.05 2.46-1.05 3.87-3.06 1.41-2.01 1.41-4.89 0-3.66-2.7-6.3-2.7-2.64-8.46-3.36-7.02-.84-10.98-4.35-3.96-3.51-3.96-8.61 0-3.66 1.95-6.36t5.37-4.17q3.42-1.47 7.86-1.47 3.3 0 6 1.05t4.71 2.76q2.01 1.71 3.27 3.75.6.96.39 1.86-.21.9-1.05 1.38-.9.42-1.83.12t-1.41-1.14q-.9-1.38-2.25-2.61t-3.27-1.95q-1.92-.72-4.62-.78-4.74 0-7.62 2.01t-2.88 5.85q0 2.04 1.08 3.75t3.57 2.94q2.49 1.23 6.69 1.83 7.5 1.08 11.13 4.59 3.63 3.51 3.63 9.15 0 3.24-1.17 5.76-1.17 2.52-3.3 4.23-2.13 1.71-4.98 2.61-2.85.9-6.09.9"></path><rect width="32.34" height="48.06" x="-16.17" y="-24.03" fill="none" rx="0" ry="0" transform="translate(544.75 30.88)"></rect><rect width="560" height="68.12" x="-280" y="-34.06" fill="none" rx="0" ry="0" transform="translate(286 35.8)"></rect><path fill="#ffffff" d="M173.37 79.228v16.56h-1.95v-16.56Z"></path><rect width="1.95" height="16.56" x="-.97" y="-8.28" fill="none" rx="0" ry="0" transform="translate(172.9 88)"></rect><path fill="#ffffff" d="M187.19 79.228v16.56h-2.53l-5.38-13.99v13.99h-1.77v-16.56h2.6l5.36 13.77v-13.77Z"></path><rect width="9.68" height="16.56" x="-4.84" y="-8.28" fill="none" rx="0" ry="0" transform="translate(182.85 88)"></rect><path fill="#ffffff" d="m201.11 79.228-4.46 16.56h-2.62l-4.54-16.56h2.03l3.84 15.15 3.96-15.15Z"></path><rect width="11.62" height="16.56" x="-5.81" y="-8.28" fill="none" rx="0" ry="0" transform="translate(195.8 88)"></rect><path fill="#ffffff" d="M210.77 88.128h-5.41v6.09h6.1v1.57h-8.05v-16.56h8.05v1.56h-6.1v5.82h5.41Z"></path><rect width="8.05" height="16.56" x="-4.03" y="-8.28" fill="none" rx="0" ry="0" transform="translate(207.94 88)"></rect><path fill="#ffffff" d="M219.37 80.398q-1.29 0-2.11.61-.83.61-.83 1.92 0 .6.16 1.06.16.46.54.82.38.37 1 .71.62.33 1.54.67.9.35 1.7.76.81.42 1.42 1.02.61.59.96 1.44.36.86.36 2.07 0 .95-.38 1.8-.38.85-1.06 1.48t-1.62 1q-.94.37-2.07.37-1.15 0-2.01-.29-.86-.28-1.49-.76-.62-.47-1.02-1.07-.4-.59-.63-1.24l1.65-.62q.17.46.43.9t.68.77q.41.33 1 .54.59.21 1.41.21.56 0 1.11-.15t1-.5q.45-.34.72-.92.28-.57.28-1.4 0-.87-.22-1.45-.22-.57-.69-1.01-.47-.44-1.23-.78-.76-.35-1.82-.79-1.86-.75-2.75-1.84-.88-1.08-.88-2.66 0-.88.32-1.65.32-.77.94-1.33.62-.57 1.51-.89.89-.32 2.04-.32 1.95 0 3.05.79 1.11.8 1.71 2.15l-1.71.6q-.39-.96-1.08-1.49-.69-.53-1.93-.53"></path><rect width="10.28" height="17.25" x="-5.14" y="-8.63" fill="none" rx="0" ry="0" transform="translate(219.47 88)"></rect><path fill="#ffffff" d="M235.68 80.928h-4.05v14.86h-1.95v-14.86h-4.01v-1.7h10.01Z"></path><rect width="10.01" height="16.56" x="-5" y="-8.28" fill="none" rx="0" ry="0" transform="translate(231.18 88)"></rect><path fill="#ffffff" d="m243.98 93.598-3.91-10.97v13.16h-1.86v-16.56h2.55l4.14 11.86 3.82-11.86h2.53v16.56h-1.93v-13.16l-3.61 10.97Z"></path><rect width="13.04" height="16.56" x="-6.52" y="-8.28" fill="none" rx="0" ry="0" transform="translate(245.23 88)"></rect><path fill="#ffffff" d="M262.75 88.128h-5.41v6.09h6.1v1.57h-8.05v-16.56h8.05v1.56h-6.1v5.82h5.41Z"></path><rect width="8.05" height="16.56" x="-4.03" y="-8.28" fill="none" rx="0" ry="0" transform="translate(259.92 88)"></rect><path fill="#ffffff" d="M276.57 79.228v16.56h-2.53l-5.38-13.99v13.99h-1.77v-16.56h2.6l5.36 13.77v-13.77Z"></path><rect width="9.68" height="16.56" x="-4.84" y="-8.28" fill="none" rx="0" ry="0" transform="translate(272.23 88)"></rect><path fill="#ffffff" d="M289.11 80.928h-4.05v14.86h-1.96v-14.86h-4v-1.7h10.01Z"></path><rect width="10.01" height="16.56" x="-5" y="-8.28" fill="none" rx="0" ry="0" transform="translate(284.6 88)"></rect><path fill="#ffffff" d="M310.27 87.758q-.14 1.36-.47 2.57-.34 1.22-.89 2.26l2.69 2.71-1.24 1.08-2.39-2.41q-.85.96-2.05 1.5-1.2.55-2.81.55-1.03 0-1.92-.33-.88-.32-1.53-.88-.64-.57-1-1.34-.35-.77-.35-1.66 0-.81.2-1.44.21-.63.61-1.17.41-.54.97-1 .56-.46 1.28-.92-.51-.51-.94-.98-.42-.47-.74-.97-.32-.49-.51-1.02-.18-.53-.18-1.13 0-.69.25-1.37.25-.68.77-1.19.52-.52 1.3-.84.78-.32 1.82-.32.99 0 1.75.27.75.28 1.28.75t.81 1.08q.27.61.27 1.25 0 .79-.23 1.41-.23.62-.65 1.16-.43.54-1.07 1.03-.64.5-1.47 1l3.88 3.96q.4-.85.61-1.81.22-.95.29-1.99Zm-6.88 6.76q1.1 0 1.96-.46.85-.46 1.47-1.24l-4.42-4.51q-.6.39-1.01.76-.41.37-.67.76-.25.39-.38.83-.12.43-.12.99 0 .5.16 1.02t.54.93q.38.41.99.67.61.25 1.48.25m-2.6-11.45q0 .39.1.72.11.33.35.71.24.38.62.83.38.45.96 1.05.8-.51 1.33-.93.53-.43.84-.83.31-.4.44-.82.12-.41.12-.92 0-.89-.7-1.46-.7-.56-1.67-.56-1.17 0-1.78.57-.61.58-.61 1.64"></path><rect width="13.29" height="16.92" x="-6.64" y="-8.46" fill="none" rx="0" ry="0" transform="translate(305.45 88.42)"></rect><path fill="#ffffff" d="M329.86 80.928h-4.04v14.86h-1.96v-14.86h-4v-1.7h10Z"></path><rect width="10" height="16.56" x="-5" y="-8.28" fill="none" rx="0" ry="0" transform="translate(325.36 88)"></rect><path fill="#ffffff" d="m340.47 95.788-3.71-6.49h-2.41v6.49h-1.96v-16.56h3.45q2.69 0 4.21 1.23t1.52 3.87q0 .94-.23 1.67-.23.72-.62 1.28-.39.55-.92.94-.53.39-1.13.64l4.12 6.93Zm-6.12-15.07v7.08h1.54q1.79 0 2.74-.86.94-.86.94-2.61t-.85-2.68q-.85-.93-2.9-.93Z"></path><rect width="10.4" height="16.56" x="-5.2" y="-8.28" fill="none" rx="0" ry="0" transform="translate(338.09 88)"></rect><path fill="#ffffff" d="m353.55 95.788-1.22-4.44h-5.79l-1.24 4.44h-1.94l4.95-16.56h2.39l4.92 16.56Zm-6.57-5.94h4.94l-2.44-8.83Z"></path><rect width="12.26" height="16.56" x="-6.13" y="-8.28" fill="none" rx="0" ry="0" transform="translate(349.99 88)"></rect><path fill="#ffffff" d="M360.87 79.228q1.63 0 3 .37 1.37.38 2.34 1.33.98.94 1.53 2.54.56 1.6.56 4.04 0 2.36-.54 3.95-.54 1.59-1.53 2.55-.99.97-2.35 1.37-1.36.41-2.97.41h-2.99v-16.56Zm-.99 1.44v13.6h1.01q1.4 0 2.43-.36 1.02-.36 1.69-1.16.66-.81.99-2.09.32-1.29.32-3.15 0-3.57-1.31-5.2-1.31-1.64-4.17-1.64Z"></path><rect width="10.38" height="16.56" x="-5.19" y="-8.28" fill="none" rx="0" ry="0" transform="translate(363.61 88)"></rect><path fill="#ffffff" d="M373.93 79.228v16.56h-1.95v-16.56Z"></path><rect width="1.95" height="16.56" x="-.97" y="-8.28" fill="none" rx="0" ry="0" transform="translate(373.45 88)"></rect><path fill="#ffffff" d="M387.75 79.228v16.56h-2.53l-5.38-13.99v13.99h-1.77v-16.56h2.6l5.36 13.77v-13.77Z"></path><rect width="9.68" height="16.56" x="-4.84" y="-8.28" fill="none" rx="0" ry="0" transform="translate(383.41 88)"></rect><path fill="#ffffff" d="M401.81 95.788h-1.52l-.12-1.04q-.62.71-1.46 1.04-.84.32-1.76.32-1.15 0-2.15-.44t-1.74-1.44q-.75-1-1.19-2.65-.44-1.66-.44-4.1 0-2.46.5-4.11.49-1.66 1.32-2.66.83-1 1.9-1.43 1.07-.42 2.22-.42 1.7 0 2.76.68 1.06.67 1.65 1.92l-1.65.76q-.39-.88-1.01-1.37-.62-.5-1.68-.5-.9 0-1.65.39-.74.39-1.26 1.25-.52.85-.81 2.2-.28 1.36-.28 3.29 0 2.05.26 3.41.26 1.35.77 2.18.51.83 1.2 1.17.69.35 1.56.35 1.91 0 2.83-1.38v-4.99h-2.83v-1.57h4.58Z"></path><rect width="10.38" height="17.25" x="-5.19" y="-8.63" fill="none" rx="0" ry="0" transform="translate(397.12 87.98)"></rect><rect width="236.97" height="38.4" x="-118.49" y="-19.2" fill="none" rx="0" ry="0" transform="translate(286 89.06)"></rect></svg></svg>